<mxfile host="www.draw.io" modified="2020-02-12T23:38:24.524Z" agent="Mozilla/5.0 (X11; Ubuntu; Linux x86_64; rv:72.0) Gecko/20100101 Firefox/72.0" etag="OTYL_Gc6fV6D79s-tU9S" version="12.6.8" type="github">
  <diagram id="C5RBs43oDa-KdzZeNtuy" name="Page-1">
    <mxGraphModel dx="1115" dy="773" grid="1" gridSize="10" guides="1" tooltips="1" connect="1" arrows="1" fold="1" page="1" pageScale="1" pageWidth="1169" pageHeight="827" math="0" shadow="0">
      <root>
        <mxCell id="WIyWlLk6GJQsqaUBKTNV-0"/>
        <mxCell id="WIyWlLk6GJQsqaUBKTNV-1" parent="WIyWlLk6GJQsqaUBKTNV-0"/>
        <mxCell id="LFKima_Gjq3WjR07UFZ1-4" value="Enviar pregunta inicial i" style="rounded=1;whiteSpace=wrap;html=1;" parent="WIyWlLk6GJQsqaUBKTNV-1" vertex="1">
          <mxGeometry x="230" y="201" width="101.25" height="49" as="geometry"/>
        </mxCell>
        <mxCell id="LFKima_Gjq3WjR07UFZ1-54" style="edgeStyle=orthogonalEdgeStyle;rounded=0;orthogonalLoop=1;jettySize=auto;html=1;exitX=1;exitY=1;exitDx=0;exitDy=0;endArrow=block;endFill=0;" parent="WIyWlLk6GJQsqaUBKTNV-1" source="LFKima_Gjq3WjR07UFZ1-14" target="LFKima_Gjq3WjR07UFZ1-51" edge="1">
          <mxGeometry relative="1" as="geometry"/>
        </mxCell>
        <mxCell id="LFKima_Gjq3WjR07UFZ1-41" value="Se llena la base de datos con el texto reconocido del mensaje, el&amp;nbsp; nombre del agricultor, y la fecha..." style="rounded=1;whiteSpace=wrap;html=1;" parent="WIyWlLk6GJQsqaUBKTNV-1" vertex="1">
          <mxGeometry x="309.25" y="410" width="140" height="60" as="geometry"/>
        </mxCell>
        <mxCell id="LFKima_Gjq3WjR07UFZ1-51" value="Agradecer al agricultor" style="rounded=1;whiteSpace=wrap;html=1;" parent="WIyWlLk6GJQsqaUBKTNV-1" vertex="1">
          <mxGeometry x="481.25" y="410" width="116" height="60" as="geometry"/>
        </mxCell>
        <mxCell id="eJcWsqn1xugrgQTTtv47-0" value="&lt;div&gt;&lt;u&gt;Pregunta inicial &lt;/u&gt;&lt;u&gt;&lt;u&gt;(i=&lt;/u&gt;1)&lt;/u&gt;&lt;br&gt;&lt;/div&gt;&lt;div&gt;Buenas tardes es el sistema de certificación partifipativa y apoyo a la decision en agroecologia agromakers hablando. Me podria dar información sobre su finca, municipio M y vereda V, su nombre N y el nombre de la finca F. Desde whatsapp oprima el clip en compartir ubicación U&lt;br&gt;&lt;/div&gt;" style="rounded=0;whiteSpace=wrap;html=1;" parent="WIyWlLk6GJQsqaUBKTNV-1" vertex="1">
          <mxGeometry x="80" y="510" width="120" height="260" as="geometry"/>
        </mxCell>
        <mxCell id="eJcWsqn1xugrgQTTtv47-1" value="&lt;div&gt;&lt;u&gt;Pregunta inicial (i=2) &lt;/u&gt;&lt;br&gt;&lt;/div&gt;&lt;div&gt;Buenas tardes, Señor(a) Me podría definir los lotes de su finca&amp;nbsp; F, para cada lote el nombre del lote (L) como es el suelo si es arenoso, limoso, arcilloso o una mezcla de dos principales, o de los 3 en proporción similar (S) y las diferentes partes del lote (parte plana, parte humeda, parte en loma, parte seca) (P) como quiere definir las partes, el porcentaje de cada parte en el lote (pp), como es la profundidad del suelo en cada parte (ps)&lt;br&gt;&lt;/div&gt;" style="rounded=0;whiteSpace=wrap;html=1;" parent="WIyWlLk6GJQsqaUBKTNV-1" vertex="1">
          <mxGeometry x="223.75" y="510" width="159" height="260" as="geometry"/>
        </mxCell>
        <mxCell id="eJcWsqn1xugrgQTTtv47-3" value="&lt;u&gt;Pregunta inicial (&lt;/u&gt;&lt;u&gt;&lt;u&gt;i=&lt;/u&gt;3) &lt;/u&gt;Cultivos. En el lote L que cultivo tiene (C) y cuanto tiempo lleva cada cultivo (tc) y en que parte del lote esta cada cultivo (pc)" style="rounded=0;whiteSpace=wrap;html=1;" parent="WIyWlLk6GJQsqaUBKTNV-1" vertex="1">
          <mxGeometry x="396.12" y="510" width="75.75" height="180" as="geometry"/>
        </mxCell>
        <mxCell id="eJcWsqn1xugrgQTTtv47-4" value="&lt;div&gt;&lt;u&gt;Pregunta periodica (&lt;/u&gt;&lt;u&gt;&lt;u&gt;i=&lt;/u&gt;4)&lt;br&gt;&lt;/u&gt;&lt;/div&gt;&lt;div&gt;En el lote L&lt;br&gt;&lt;/div&gt;" style="rounded=0;whiteSpace=wrap;html=1;" parent="WIyWlLk6GJQsqaUBKTNV-1" vertex="1">
          <mxGeometry x="492.75" y="510" width="160" height="270" as="geometry"/>
        </mxCell>
        <mxCell id="ntUJKvOIBmLxlDmZnV4F-12" value="Enviar pregunta periodica" style="rounded=1;whiteSpace=wrap;html=1;" vertex="1" parent="WIyWlLk6GJQsqaUBKTNV-1">
          <mxGeometry x="597.25" y="195.5" width="101.25" height="60" as="geometry"/>
        </mxCell>
        <mxCell id="ntUJKvOIBmLxlDmZnV4F-19" style="edgeStyle=orthogonalEdgeStyle;rounded=0;orthogonalLoop=1;jettySize=auto;html=1;endArrow=block;endFill=0;" edge="1" parent="WIyWlLk6GJQsqaUBKTNV-1" source="ntUJKvOIBmLxlDmZnV4F-57" target="ntUJKvOIBmLxlDmZnV4F-26">
          <mxGeometry relative="1" as="geometry">
            <mxPoint x="342.5" y="276" as="sourcePoint"/>
            <mxPoint x="342.5" y="316" as="targetPoint"/>
            <Array as="points">
              <mxPoint x="165" y="390"/>
              <mxPoint x="165" y="390"/>
            </Array>
          </mxGeometry>
        </mxCell>
        <mxCell id="ntUJKvOIBmLxlDmZnV4F-21" style="edgeStyle=orthogonalEdgeStyle;rounded=0;orthogonalLoop=1;jettySize=auto;html=1;endArrow=block;endFill=0;entryX=1;entryY=0.5;entryDx=0;entryDy=0;exitX=0;exitY=0.5;exitDx=0;exitDy=0;" edge="1" parent="WIyWlLk6GJQsqaUBKTNV-1" source="LFKima_Gjq3WjR07UFZ1-51" target="LFKima_Gjq3WjR07UFZ1-41">
          <mxGeometry relative="1" as="geometry">
            <mxPoint x="411.25" y="440" as="sourcePoint"/>
            <mxPoint x="453.75" y="412.5" as="targetPoint"/>
          </mxGeometry>
        </mxCell>
        <mxCell id="ntUJKvOIBmLxlDmZnV4F-25" style="edgeStyle=orthogonalEdgeStyle;rounded=0;orthogonalLoop=1;jettySize=auto;html=1;exitX=1;exitY=0.5;exitDx=0;exitDy=0;endArrow=block;endFill=0;entryX=0;entryY=0.5;entryDx=0;entryDy=0;" edge="1" parent="WIyWlLk6GJQsqaUBKTNV-1" source="LFKima_Gjq3WjR07UFZ1-4" target="LFKima_Gjq3WjR07UFZ1-14">
          <mxGeometry relative="1" as="geometry">
            <mxPoint x="443.75" y="276" as="sourcePoint"/>
            <mxPoint x="443.75" y="316" as="targetPoint"/>
          </mxGeometry>
        </mxCell>
        <mxCell id="ntUJKvOIBmLxlDmZnV4F-26" value="La informacion necesaria para pasar a i+1 esta" style="rhombus;whiteSpace=wrap;html=1;shadow=0;fontFamily=Helvetica;fontSize=12;align=center;strokeWidth=1;spacing=6;spacingTop=-4;" vertex="1" parent="WIyWlLk6GJQsqaUBKTNV-1">
          <mxGeometry x="94" y="310" width="130" height="80" as="geometry"/>
        </mxCell>
        <mxCell id="ntUJKvOIBmLxlDmZnV4F-29" style="edgeStyle=orthogonalEdgeStyle;rounded=0;orthogonalLoop=1;jettySize=auto;html=1;endArrow=block;endFill=0;exitX=0;exitY=0;exitDx=0;exitDy=0;entryX=0.5;entryY=1;entryDx=0;entryDy=0;" edge="1" parent="WIyWlLk6GJQsqaUBKTNV-1" source="ntUJKvOIBmLxlDmZnV4F-26" target="ntUJKvOIBmLxlDmZnV4F-52">
          <mxGeometry relative="1" as="geometry">
            <mxPoint x="20" y="380" as="sourcePoint"/>
            <mxPoint x="110" y="226" as="targetPoint"/>
            <Array as="points">
              <mxPoint x="127" y="300"/>
            </Array>
          </mxGeometry>
        </mxCell>
        <mxCell id="ntUJKvOIBmLxlDmZnV4F-33" style="edgeStyle=orthogonalEdgeStyle;rounded=0;orthogonalLoop=1;jettySize=auto;html=1;exitX=1;exitY=0.5;exitDx=0;exitDy=0;endArrow=block;endFill=0;" edge="1" parent="WIyWlLk6GJQsqaUBKTNV-1" source="LFKima_Gjq3WjR07UFZ1-14" target="ntUJKvOIBmLxlDmZnV4F-12">
          <mxGeometry relative="1" as="geometry">
            <mxPoint x="166.25" y="310" as="sourcePoint"/>
            <mxPoint x="240" y="236" as="targetPoint"/>
            <Array as="points"/>
          </mxGeometry>
        </mxCell>
        <mxCell id="ntUJKvOIBmLxlDmZnV4F-39" style="edgeStyle=orthogonalEdgeStyle;rounded=0;orthogonalLoop=1;jettySize=auto;html=1;endArrow=block;endFill=0;entryX=1;entryY=0.5;entryDx=0;entryDy=0;exitX=0;exitY=0.5;exitDx=0;exitDy=0;" edge="1" parent="WIyWlLk6GJQsqaUBKTNV-1" source="ntUJKvOIBmLxlDmZnV4F-64" target="ntUJKvOIBmLxlDmZnV4F-63">
          <mxGeometry relative="1" as="geometry">
            <mxPoint x="759.75" y="170" as="sourcePoint"/>
            <mxPoint x="439.75" y="150" as="targetPoint"/>
          </mxGeometry>
        </mxCell>
        <mxCell id="ntUJKvOIBmLxlDmZnV4F-43" style="edgeStyle=orthogonalEdgeStyle;rounded=0;orthogonalLoop=1;jettySize=auto;html=1;exitX=0;exitY=1;exitDx=0;exitDy=0;endArrow=block;endFill=0;entryX=0.975;entryY=0.5;entryDx=0;entryDy=0;entryPerimeter=0;" edge="1" parent="WIyWlLk6GJQsqaUBKTNV-1" source="LFKima_Gjq3WjR07UFZ1-14" target="ntUJKvOIBmLxlDmZnV4F-46">
          <mxGeometry relative="1" as="geometry">
            <mxPoint x="508.75" y="296" as="sourcePoint"/>
            <mxPoint x="483.75" y="430" as="targetPoint"/>
            <Array as="points">
              <mxPoint x="489.25" y="316"/>
            </Array>
          </mxGeometry>
        </mxCell>
        <mxCell id="ntUJKvOIBmLxlDmZnV4F-44" value="No" style="text;html=1;align=center;verticalAlign=middle;resizable=0;points=[];autosize=1;" vertex="1" parent="WIyWlLk6GJQsqaUBKTNV-1">
          <mxGeometry x="451.25" y="320" width="30" height="20" as="geometry"/>
        </mxCell>
        <mxCell id="ntUJKvOIBmLxlDmZnV4F-45" value="Si" style="text;html=1;align=center;verticalAlign=middle;resizable=0;points=[];autosize=1;" vertex="1" parent="WIyWlLk6GJQsqaUBKTNV-1">
          <mxGeometry x="538.75" y="306" width="30" height="20" as="geometry"/>
        </mxCell>
        <mxCell id="ntUJKvOIBmLxlDmZnV4F-46" value="Pasa un tiempo " style="rhombus;whiteSpace=wrap;html=1;shadow=0;fontFamily=Helvetica;fontSize=12;align=center;strokeWidth=1;spacing=6;spacingTop=-4;" vertex="1" parent="WIyWlLk6GJQsqaUBKTNV-1">
          <mxGeometry x="331.25" y="276" width="100" height="80" as="geometry"/>
        </mxCell>
        <mxCell id="ntUJKvOIBmLxlDmZnV4F-47" style="edgeStyle=orthogonalEdgeStyle;rounded=0;orthogonalLoop=1;jettySize=auto;html=1;endArrow=block;endFill=0;entryX=0.5;entryY=1;entryDx=0;entryDy=0;exitX=0;exitY=0.5;exitDx=0;exitDy=0;" edge="1" parent="WIyWlLk6GJQsqaUBKTNV-1" source="ntUJKvOIBmLxlDmZnV4F-46" target="LFKima_Gjq3WjR07UFZ1-4">
          <mxGeometry relative="1" as="geometry">
            <mxPoint x="301.25" y="360" as="sourcePoint"/>
            <mxPoint x="411.25" y="370" as="targetPoint"/>
            <Array as="points">
              <mxPoint x="280.25" y="316"/>
            </Array>
          </mxGeometry>
        </mxCell>
        <mxCell id="LFKima_Gjq3WjR07UFZ1-14" value="Se recibe mensaje" style="rhombus;whiteSpace=wrap;html=1;shadow=0;fontFamily=Helvetica;fontSize=12;align=center;strokeWidth=1;spacing=6;spacingTop=-4;" parent="WIyWlLk6GJQsqaUBKTNV-1" vertex="1">
          <mxGeometry x="464.25" y="185.5" width="100" height="80" as="geometry"/>
        </mxCell>
        <mxCell id="ntUJKvOIBmLxlDmZnV4F-52" value="i=i+1" style="rounded=1;whiteSpace=wrap;html=1;" vertex="1" parent="WIyWlLk6GJQsqaUBKTNV-1">
          <mxGeometry x="107.25" y="265.5" width="40" height="30" as="geometry"/>
        </mxCell>
        <mxCell id="ntUJKvOIBmLxlDmZnV4F-58" value="No" style="text;html=1;align=center;verticalAlign=middle;resizable=0;points=[];autosize=1;" vertex="1" parent="WIyWlLk6GJQsqaUBKTNV-1">
          <mxGeometry x="200" y="295.5" width="30" height="20" as="geometry"/>
        </mxCell>
        <mxCell id="ntUJKvOIBmLxlDmZnV4F-59" value="Si" style="text;html=1;align=center;verticalAlign=middle;resizable=0;points=[];autosize=1;" vertex="1" parent="WIyWlLk6GJQsqaUBKTNV-1">
          <mxGeometry x="100" y="295.5" width="30" height="20" as="geometry"/>
        </mxCell>
        <mxCell id="ntUJKvOIBmLxlDmZnV4F-60" style="edgeStyle=orthogonalEdgeStyle;rounded=0;orthogonalLoop=1;jettySize=auto;html=1;endArrow=block;endFill=0;exitX=1;exitY=0;exitDx=0;exitDy=0;entryX=0.5;entryY=1;entryDx=0;entryDy=0;" edge="1" parent="WIyWlLk6GJQsqaUBKTNV-1" source="ntUJKvOIBmLxlDmZnV4F-26" target="ntUJKvOIBmLxlDmZnV4F-61">
          <mxGeometry relative="1" as="geometry">
            <mxPoint x="55" y="356" as="sourcePoint"/>
            <mxPoint x="95" y="300" as="targetPoint"/>
            <Array as="points">
              <mxPoint x="187" y="330"/>
            </Array>
          </mxGeometry>
        </mxCell>
        <mxCell id="ntUJKvOIBmLxlDmZnV4F-61" value="i=i" style="rounded=1;whiteSpace=wrap;html=1;" vertex="1" parent="WIyWlLk6GJQsqaUBKTNV-1">
          <mxGeometry x="163.75" y="265.5" width="46.25" height="30" as="geometry"/>
        </mxCell>
        <mxCell id="ntUJKvOIBmLxlDmZnV4F-62" style="edgeStyle=orthogonalEdgeStyle;rounded=0;orthogonalLoop=1;jettySize=auto;html=1;exitX=1;exitY=0.5;exitDx=0;exitDy=0;endArrow=block;endFill=0;" edge="1" parent="WIyWlLk6GJQsqaUBKTNV-1" source="ntUJKvOIBmLxlDmZnV4F-70" target="ntUJKvOIBmLxlDmZnV4F-64">
          <mxGeometry relative="1" as="geometry"/>
        </mxCell>
        <mxCell id="ntUJKvOIBmLxlDmZnV4F-63" value="Se llena la base de datos con el texto reconocido del mensaje, el&amp;nbsp; nombre del agricultor, y la fecha..." style="rounded=1;whiteSpace=wrap;html=1;" vertex="1" parent="WIyWlLk6GJQsqaUBKTNV-1">
          <mxGeometry x="725.88" y="410" width="140" height="60" as="geometry"/>
        </mxCell>
        <mxCell id="ntUJKvOIBmLxlDmZnV4F-64" value="Agradecer al agricultor" style="rounded=1;whiteSpace=wrap;html=1;" vertex="1" parent="WIyWlLk6GJQsqaUBKTNV-1">
          <mxGeometry x="897.88" y="410" width="116" height="60" as="geometry"/>
        </mxCell>
        <mxCell id="ntUJKvOIBmLxlDmZnV4F-66" style="edgeStyle=orthogonalEdgeStyle;rounded=0;orthogonalLoop=1;jettySize=auto;html=1;exitX=1;exitY=0.5;exitDx=0;exitDy=0;endArrow=block;endFill=0;entryX=0;entryY=0.5;entryDx=0;entryDy=0;" edge="1" parent="WIyWlLk6GJQsqaUBKTNV-1" target="ntUJKvOIBmLxlDmZnV4F-70" source="ntUJKvOIBmLxlDmZnV4F-12">
          <mxGeometry relative="1" as="geometry">
            <mxPoint x="747.88" y="241" as="sourcePoint"/>
            <mxPoint x="860.38" y="331.5" as="targetPoint"/>
          </mxGeometry>
        </mxCell>
        <mxCell id="ntUJKvOIBmLxlDmZnV4F-67" style="edgeStyle=orthogonalEdgeStyle;rounded=0;orthogonalLoop=1;jettySize=auto;html=1;exitX=0;exitY=1;exitDx=0;exitDy=0;endArrow=block;endFill=0;entryX=0.975;entryY=0.5;entryDx=0;entryDy=0;entryPerimeter=0;" edge="1" parent="WIyWlLk6GJQsqaUBKTNV-1" source="ntUJKvOIBmLxlDmZnV4F-70" target="ntUJKvOIBmLxlDmZnV4F-68">
          <mxGeometry relative="1" as="geometry">
            <mxPoint x="925.38" y="311.5" as="sourcePoint"/>
            <mxPoint x="900.38" y="445.5" as="targetPoint"/>
            <Array as="points">
              <mxPoint x="812.25" y="316"/>
            </Array>
          </mxGeometry>
        </mxCell>
        <mxCell id="ntUJKvOIBmLxlDmZnV4F-68" value="Pasa un tiempo " style="rhombus;whiteSpace=wrap;html=1;shadow=0;fontFamily=Helvetica;fontSize=12;align=center;strokeWidth=1;spacing=6;spacingTop=-4;" vertex="1" parent="WIyWlLk6GJQsqaUBKTNV-1">
          <mxGeometry x="677.25" y="276" width="100" height="80" as="geometry"/>
        </mxCell>
        <mxCell id="ntUJKvOIBmLxlDmZnV4F-69" style="edgeStyle=orthogonalEdgeStyle;rounded=0;orthogonalLoop=1;jettySize=auto;html=1;endArrow=block;endFill=0;exitX=0;exitY=0.5;exitDx=0;exitDy=0;entryX=0.5;entryY=1;entryDx=0;entryDy=0;" edge="1" parent="WIyWlLk6GJQsqaUBKTNV-1" source="ntUJKvOIBmLxlDmZnV4F-68" target="ntUJKvOIBmLxlDmZnV4F-12">
          <mxGeometry relative="1" as="geometry">
            <mxPoint x="717.88" y="375.5" as="sourcePoint"/>
            <mxPoint x="657.25" y="260" as="targetPoint"/>
            <Array as="points">
              <mxPoint x="648.25" y="316"/>
            </Array>
          </mxGeometry>
        </mxCell>
        <mxCell id="ntUJKvOIBmLxlDmZnV4F-70" value="Se recibe mensaje" style="rhombus;whiteSpace=wrap;html=1;shadow=0;fontFamily=Helvetica;fontSize=12;align=center;strokeWidth=1;spacing=6;spacingTop=-4;" vertex="1" parent="WIyWlLk6GJQsqaUBKTNV-1">
          <mxGeometry x="787.25" y="185.5" width="100" height="80" as="geometry"/>
        </mxCell>
        <mxCell id="ntUJKvOIBmLxlDmZnV4F-71" style="edgeStyle=orthogonalEdgeStyle;rounded=0;orthogonalLoop=1;jettySize=auto;html=1;endArrow=block;endFill=0;entryX=0.25;entryY=1;entryDx=0;entryDy=0;" edge="1" parent="WIyWlLk6GJQsqaUBKTNV-1" source="ntUJKvOIBmLxlDmZnV4F-63" target="ntUJKvOIBmLxlDmZnV4F-12">
          <mxGeometry relative="1" as="geometry">
            <mxPoint x="907.8800000000001" y="450" as="sourcePoint"/>
            <mxPoint x="875.8800000000001" y="450" as="targetPoint"/>
          </mxGeometry>
        </mxCell>
        <mxCell id="ntUJKvOIBmLxlDmZnV4F-72" value="i&amp;lt;4" style="rhombus;whiteSpace=wrap;html=1;shadow=0;fontFamily=Helvetica;fontSize=12;align=center;strokeWidth=1;spacing=6;spacingTop=-4;" vertex="1" parent="WIyWlLk6GJQsqaUBKTNV-1">
          <mxGeometry x="110" y="185.5" width="100" height="80" as="geometry"/>
        </mxCell>
        <mxCell id="ntUJKvOIBmLxlDmZnV4F-75" style="edgeStyle=orthogonalEdgeStyle;rounded=0;orthogonalLoop=1;jettySize=auto;html=1;endArrow=block;endFill=0;entryX=0;entryY=0.5;entryDx=0;entryDy=0;exitX=1;exitY=0.5;exitDx=0;exitDy=0;" edge="1" parent="WIyWlLk6GJQsqaUBKTNV-1" source="ntUJKvOIBmLxlDmZnV4F-72" target="LFKima_Gjq3WjR07UFZ1-4">
          <mxGeometry relative="1" as="geometry">
            <mxPoint x="105" y="356" as="sourcePoint"/>
            <mxPoint x="120" y="235.5" as="targetPoint"/>
            <Array as="points">
              <mxPoint x="220" y="226"/>
              <mxPoint x="220" y="226"/>
            </Array>
          </mxGeometry>
        </mxCell>
        <mxCell id="ntUJKvOIBmLxlDmZnV4F-76" style="edgeStyle=orthogonalEdgeStyle;rounded=0;orthogonalLoop=1;jettySize=auto;html=1;endArrow=block;endFill=0;entryX=0.5;entryY=0;entryDx=0;entryDy=0;exitX=0.5;exitY=0;exitDx=0;exitDy=0;" edge="1" parent="WIyWlLk6GJQsqaUBKTNV-1" source="ntUJKvOIBmLxlDmZnV4F-72" target="ntUJKvOIBmLxlDmZnV4F-12">
          <mxGeometry relative="1" as="geometry">
            <mxPoint x="220" y="235.5" as="sourcePoint"/>
            <mxPoint x="240" y="235.5" as="targetPoint"/>
            <Array as="points">
              <mxPoint x="160" y="150"/>
              <mxPoint x="648" y="150"/>
            </Array>
          </mxGeometry>
        </mxCell>
        <mxCell id="ntUJKvOIBmLxlDmZnV4F-77" value="No" style="text;html=1;align=center;verticalAlign=middle;resizable=0;points=[];autosize=1;" vertex="1" parent="WIyWlLk6GJQsqaUBKTNV-1">
          <mxGeometry x="382.25" y="130" width="30" height="20" as="geometry"/>
        </mxCell>
        <mxCell id="ntUJKvOIBmLxlDmZnV4F-78" value="Si" style="text;html=1;align=center;verticalAlign=middle;resizable=0;points=[];autosize=1;" vertex="1" parent="WIyWlLk6GJQsqaUBKTNV-1">
          <mxGeometry x="200" y="230" width="30" height="20" as="geometry"/>
        </mxCell>
        <mxCell id="ntUJKvOIBmLxlDmZnV4F-79" style="edgeStyle=orthogonalEdgeStyle;rounded=0;orthogonalLoop=1;jettySize=auto;html=1;endArrow=block;endFill=0;exitX=0.5;exitY=0;exitDx=0;exitDy=0;entryX=1;entryY=1;entryDx=0;entryDy=0;" edge="1" parent="WIyWlLk6GJQsqaUBKTNV-1" source="ntUJKvOIBmLxlDmZnV4F-61" target="ntUJKvOIBmLxlDmZnV4F-72">
          <mxGeometry relative="1" as="geometry">
            <mxPoint x="105" y="356" as="sourcePoint"/>
            <mxPoint x="130" y="250" as="targetPoint"/>
            <Array as="points">
              <mxPoint x="185" y="266"/>
            </Array>
          </mxGeometry>
        </mxCell>
        <mxCell id="ntUJKvOIBmLxlDmZnV4F-80" style="edgeStyle=orthogonalEdgeStyle;rounded=0;orthogonalLoop=1;jettySize=auto;html=1;endArrow=block;endFill=0;exitX=0.5;exitY=0;exitDx=0;exitDy=0;entryX=0;entryY=1;entryDx=0;entryDy=0;" edge="1" parent="WIyWlLk6GJQsqaUBKTNV-1" source="ntUJKvOIBmLxlDmZnV4F-52" target="ntUJKvOIBmLxlDmZnV4F-72">
          <mxGeometry relative="1" as="geometry">
            <mxPoint x="115" y="366" as="sourcePoint"/>
            <mxPoint x="70" y="170" as="targetPoint"/>
            <Array as="points">
              <mxPoint x="127" y="246"/>
            </Array>
          </mxGeometry>
        </mxCell>
        <mxCell id="ntUJKvOIBmLxlDmZnV4F-81" value="&lt;div&gt;Infomación necesaria para pasar a :&lt;/div&gt;&lt;div align=&quot;left&quot;&gt;i=2 : [F]&lt;/div&gt;&lt;div align=&quot;left&quot;&gt;i=3 : [L]&lt;/div&gt;&lt;div align=&quot;left&quot;&gt;i=4 : [C]&lt;br&gt;&lt;/div&gt;" style="rounded=0;whiteSpace=wrap;html=1;" vertex="1" parent="WIyWlLk6GJQsqaUBKTNV-1">
          <mxGeometry x="710" y="510" width="120" height="121.5" as="geometry"/>
        </mxCell>
        <mxCell id="ntUJKvOIBmLxlDmZnV4F-82" value="&lt;div&gt;Infomación para necesaria para no volver a preguntar i:&lt;/div&gt;&lt;div align=&quot;left&quot;&gt;i=1 : [F, M, V, N, U]&lt;/div&gt;&lt;div align=&quot;left&quot;&gt;i=2 : [L, S, P, pp, ps]&lt;/div&gt;&lt;div align=&quot;left&quot;&gt;i=3 : [tc, pc]&lt;br&gt;&lt;/div&gt;" style="rounded=0;whiteSpace=wrap;html=1;" vertex="1" parent="WIyWlLk6GJQsqaUBKTNV-1">
          <mxGeometry x="710" y="658.5" width="120" height="121.5" as="geometry"/>
        </mxCell>
        <mxCell id="ntUJKvOIBmLxlDmZnV4F-57" value="Se reconoce la información para pasar a la pregunta i+1" style="rounded=1;whiteSpace=wrap;html=1;" vertex="1" parent="WIyWlLk6GJQsqaUBKTNV-1">
          <mxGeometry x="103.75" y="410" width="120" height="60" as="geometry"/>
        </mxCell>
        <mxCell id="ntUJKvOIBmLxlDmZnV4F-85" style="edgeStyle=orthogonalEdgeStyle;rounded=0;orthogonalLoop=1;jettySize=auto;html=1;exitX=0;exitY=0.5;exitDx=0;exitDy=0;endArrow=block;endFill=0;" edge="1" parent="WIyWlLk6GJQsqaUBKTNV-1" source="LFKima_Gjq3WjR07UFZ1-41" target="ntUJKvOIBmLxlDmZnV4F-57">
          <mxGeometry relative="1" as="geometry">
            <mxPoint x="309.25" y="440" as="sourcePoint"/>
            <mxPoint x="165" y="390" as="targetPoint"/>
          </mxGeometry>
        </mxCell>
        <mxCell id="ntUJKvOIBmLxlDmZnV4F-86" value="Enviar pregunta información faltante" style="rounded=1;whiteSpace=wrap;html=1;" vertex="1" parent="WIyWlLk6GJQsqaUBKTNV-1">
          <mxGeometry x="597.25" y="20" width="101.25" height="60" as="geometry"/>
        </mxCell>
        <mxCell id="ntUJKvOIBmLxlDmZnV4F-87" value="&lt;div&gt;&lt;u&gt;Pregunta información faltante &lt;br&gt;&lt;/u&gt;&lt;/div&gt;" style="rounded=0;whiteSpace=wrap;html=1;" vertex="1" parent="WIyWlLk6GJQsqaUBKTNV-1">
          <mxGeometry x="853.88" y="510" width="160" height="270" as="geometry"/>
        </mxCell>
      </root>
    </mxGraphModel>
  </diagram>
</mxfile>
